<?xml version="1.0" encoding="utf-8"?>
<!-- Generator: Adobe Illustrator 16.0.0, SVG Export Plug-In . SVG Version: 6.00 Build 0)  -->
<!DOCTYPE svg PUBLIC "-//W3C//DTD SVG 1.1//EN" "http://www.w3.org/Graphics/SVG/1.1/DTD/svg11.dtd">
<svg version="1.1" id="Calque_1" xmlns="http://www.w3.org/2000/svg" xmlns:xlink="http://www.w3.org/1999/xlink" x="0px" y="0px"
	 width="371.519px" height="408.208px" viewBox="235.186 24.008 371.519 408.208"
	 enable-background="new 235.186 24.008 371.519 408.208" xml:space="preserve">
<path fill="#FFFFFF" d="M567.304,330.185c4.072,0,7.574-2.891,8.346-6.885l30.898-159.102c0.484-2.492-0.172-5.066-1.787-7.026
	s-4.02-3.098-6.561-3.098h-61.604L483.431,50.491c-2.148-4.169-7.268-5.838-11.449-3.679l-24.416,12.53l-4.617-8.992
	c-5.908-11.502-15.939-20.022-28.248-23.984c-12.303-3.97-25.408-2.898-36.889,2.998c-11.511,5.913-20.031,15.945-23.988,28.261
	c-3.961,12.308-2.886,25.429,3.023,36.939l4.604,8.968l-24.374,12.508c-4.173,2.151-5.817,7.267-3.675,11.444l13.633,26.592h-34.123
	l-10.586-63.904c-0.73-4.427-4.708-7.417-9.23-7.076l-50.248,5.007c-4.676,0.465-8.084,4.634-7.62,9.31
	c0.465,4.667,4.584,7.998,9.306,7.616l42.316-4.219l41.107,248.124c-11.926,4.096-20.583,15.344-20.583,28.695
	c0,16.742,13.591,30.371,30.292,30.371h7.582c3.787,13.906,16.396,24.217,31.483,24.217c15.088,0,27.697-10.311,31.485-24.217
	h82.621c3.787,13.906,16.396,24.217,31.484,24.217s27.697-10.311,31.484-24.217h15.977c4.695,0,8.504-3.803,8.504-8.504
	s-3.809-8.504-8.504-8.504h-15.951c-3.758-13.947-16.393-24.291-31.51-24.291c-15.119,0-27.752,10.344-31.51,24.291h-82.57
	c-3.758-13.947-16.392-24.291-31.51-24.291s-27.751,10.344-31.509,24.291h-7.556c-7.325,0-13.284-5.996-13.284-13.363
	c0-7.371,5.904-13.367,13.181-13.426c0.044,0,0.083,0.023,0.127,0.023c0.132,0,0.267-0.027,0.399-0.033h231.692
	c4.695,0,8.504-3.805,8.504-8.504c0-4.701-3.809-8.504-8.504-8.504h-224.88l-2.816-17H567.304z M371.977,86.791
	c-3.836-7.466-4.53-15.978-1.964-23.959c2.57-7.989,8.097-14.5,15.567-18.336c7.429-3.837,15.924-4.518,23.91-1.943
	c7.984,2.574,14.496,8.105,18.328,15.571l4.613,8.985l-55.846,28.658L371.977,86.791z M352.412,127.284l16.806-8.624l11.924,23.224
	c1.507,2.932,4.484,4.618,7.574,4.618c1.304,0,2.633-0.299,3.874-0.938c4.182-2.143,5.83-7.275,3.683-11.452l-11.92-23.218
	l55.844-28.659l11.916,23.208c2.146,4.177,7.271,5.83,11.449,3.679c4.182-2.143,5.83-7.275,3.682-11.452l-11.912-23.202l16.85-8.647
	l45.297,88.254H366.143L352.412,127.284z M587.886,171.083l-27.596,142.094H339.784l-22.992-142.094H587.886z M522.322,383.708
	c8.672,0,15.73,7.053,15.746,15.719c0,0.023-0.014,0.043-0.014,0.068c0,0.014,0.008,0.027,0.008,0.041
	c-0.045,8.648-7.086,15.672-15.74,15.672c-8.684,0-15.75-7.068-15.75-15.754C506.572,390.775,513.638,383.708,522.322,383.708z
	 M376.731,383.708c8.683,0,15.75,7.066,15.75,15.746c0,8.686-7.067,15.754-15.75,15.754c-8.654,0-15.696-7.023-15.741-15.672
	c0-0.014,0.008-0.027,0.008-0.041c0-0.025-0.014-0.045-0.014-0.068C361,390.761,368.059,383.708,376.731,383.708z"/>
<path fill="#FFFFFF" d="M369.511,297.066c4.696,0,8.504-3.805,8.504-8.504V195.69c0-4.7-3.808-8.504-8.504-8.504
	s-8.504,3.804-8.504,8.504v92.872C361.007,293.261,364.814,297.066,369.511,297.066z"/>
<path fill="#FFFFFF" d="M411.005,297.066c4.696,0,8.504-3.805,8.504-8.504V195.69c0-4.7-3.808-8.504-8.504-8.504
	c-4.697,0-8.504,3.804-8.504,8.504v92.872C402.501,293.261,406.308,297.066,411.005,297.066z"/>
<path fill="#FFFFFF" d="M452.5,297.066c4.697,0,8.504-3.805,8.504-8.504V195.69c0-4.7-3.807-8.504-8.504-8.504
	c-4.695,0-8.504,3.804-8.504,8.504v92.872C443.996,293.261,447.804,297.066,452.5,297.066z"/>
<path fill="#FFFFFF" d="M493.998,297.066c4.697,0,8.504-3.805,8.504-8.504V195.69c0-4.7-3.807-8.504-8.504-8.504
	c-4.695,0-8.504,3.804-8.504,8.504v92.872C485.494,293.261,489.302,297.066,493.998,297.066z"/>
<path fill="#FFFFFF" d="M535.492,297.066c4.697,0,8.504-3.805,8.504-8.504V195.69c0-4.7-3.807-8.504-8.504-8.504
	c-4.695,0-8.504,3.804-8.504,8.504v92.872C526.988,293.261,530.796,297.066,535.492,297.066z"/>
</svg>
